<svg fill="none" height="18" width="1440" xmlns="http://www.w3.org/2000/svg"><g fill="#c0933e"><path d="m327.953 9.23-27.775-5.622V14.29zM20.297 9.23 0 3.608V14.29zM28.843 17.495V.403H24.57v17.092zM41.662 17.495V.403h-8.546v17.092zM698.635 9.23l-27.774-5.622V14.29zM390.979 9.23l-20.297-5.622V14.29zM399.525 17.495V.403h-4.273v17.092zM412.344 17.495V.403h-8.546v17.092zM1069.32 9.23l-27.78-5.622V14.29zM761.662 9.23l-20.297-5.622V14.29zM770.208 17.495V.403h-4.273v17.092zM783.027 17.495V.403h-8.546v17.092zM1440 9.23l-27.77-5.622V14.29zM1132.34 9.23l-20.29-5.622V14.29zM1140.89 17.495V.403h-4.27v17.092zM1153.71 17.495V.403h-8.55v17.092z"/></g></svg>