<svg fill="none" height="20" width="1440" xmlns="http://www.w3.org/2000/svg"><g fill="#c0933e"><path d="M7.596 8.118 0 8.222l.176 8.803 7.6.117zM20.138 7.947l-7.596.104.18 9.163 7.6.117zM32.675 7.776l-7.595.104.189 9.523 7.6.117zM45.218 7.604l-7.6.104.198 9.884 7.6.113zM71.762 7.123l-7.596.085.18 10.61 7.596.126zM84.259 6.974l-7.596.09.185 10.965 7.6.13zM96.63 6.722l-7.596.09.19 11.326 7.6.13zM109.167 6.578l-7.595.09.198 11.686 7.6.13zM121.71 6.433l-7.596.086.203 12.046 7.6.13zM134.675 6.23l-7.595.167.387 12.403 7.6.054zM147.082 6.212l-7.595.163.401 12.762 7.6.054zM160.017 19.187l.13-13.033-7.595-.054-.136 13.033zM172.473 19.354l.379-13.029-7.596-.153-.378 13.029zM260.327 16.808l-.405-13.028-7.596.162.405 13.029zM272.865 16.538l-.406-13.029-7.595.167.405 13.024zM348.091 14.916l-.41-13.024-7.591.162.405 13.029zM360.624 14.646l-.405-13.024-7.596.162.41 13.029zM373.162 14.376l-.406-13.024-7.595.162.41 13.028zM385.699 14.11l-.405-13.029-7.596.162.41 13.029zM398.237 13.84 397.832.81l-7.596.162.41 13.029zM423.312 13.3 422.907.27l-7.596.163.406 13.028zM435.85 13.029 435.445 0l-7.596.162.405 13.029z"/></g><path d="M147.488 19.237v-.045l-7.6-.054.009.265z" fill="#fff"/><path d="m509.671 8.118-7.596.104.176 8.803 7.6.117zM522.213 7.947l-7.596.104.18 9.163 7.6.117zM534.75 7.776l-7.595.104.189 9.523 7.6.117zM547.293 7.604l-7.6.104.198 9.884 7.6.113zM573.837 7.123l-7.596.085.18 10.61 7.596.126zM586.334 6.974l-7.596.09.185 10.965 7.6.13zM598.705 6.722l-7.596.09.189 11.326 7.601.13zM611.242 6.578l-7.595.09.198 11.686 7.6.13zM623.785 6.433l-7.596.086.203 12.046 7.6.13zM636.75 6.23l-7.595.167.387 12.403 7.6.054zM649.157 6.212l-7.595.163.401 12.762 7.6.054zM662.092 19.187l.13-13.033-7.595-.054-.136 13.033zM674.548 19.354l.378-13.029-7.595-.153-.379 13.029zM762.402 16.808l-.405-13.028-7.596.162.405 13.029zM774.94 16.538l-.406-13.029-7.595.167.405 13.024zM850.166 14.916l-.41-13.024-7.591.162.405 13.029zM862.699 14.646l-.406-13.024-7.595.162.41 13.029zM875.237 14.376l-.406-13.024-7.595.162.41 13.028zM887.774 14.11l-.405-13.029-7.596.162.41 13.029zM900.312 13.84 899.906.81l-7.595.162.41 13.029zM925.387 13.3 924.982.27l-7.596.163.406 13.028zM937.925 13.029 937.52 0l-7.596.162.405 13.029z" fill="#c0933e"/><path d="M649.563 19.237v-.045l-7.6-.054.009.265z" fill="#fff"/><path d="m1011.75 8.118-7.6.104.18 8.803 7.6.117zM1024.29 7.947l-7.6.104.18 9.163 7.6.117zM1036.83 7.776l-7.6.104.19 9.523 7.6.117zM1049.37 7.604l-7.6.104.2 9.884 7.6.113zM1075.91 7.123l-7.59.085.18 10.61 7.59.126zM1088.41 6.974l-7.6.09.19 10.965 7.6.13zM1100.78 6.722l-7.6.09.19 11.326 7.6.13zM1113.32 6.578l-7.6.09.2 11.686 7.6.13zM1125.86 6.433l-7.6.086.21 12.046 7.6.13zM1138.83 6.23l-7.6.167.39 12.403 7.6.054zM1151.23 6.212l-7.59.163.4 12.762 7.6.054zM1164.17 19.187l.13-13.033-7.6-.054-.13 13.033zM1176.62 19.354l.38-13.029-7.59-.153-.38 13.029zM1264.48 16.808l-.41-13.028-7.59.162.4 13.029zM1277.01 16.538l-.4-13.029-7.6.167.41 13.024zM1352.24 14.916l-.41-13.024-7.59.162.4 13.029zM1364.77 14.646l-.4-13.024-7.6.162.41 13.029zM1377.31 14.376l-.4-13.024-7.6.162.41 13.028zM1389.85 14.11l-.41-13.029-7.59.162.41 13.029zM1402.39 13.84 1401.98.81l-7.59.162.41 13.029zM1427.46 13.3l-.4-13.03-7.6.163.41 13.028zM1440 13.029 1439.59 0l-7.59.162.4 13.029z" fill="#c0933e"/><path d="M1151.64 19.237v-.045l-7.6-.054.01.265z" fill="#fff"/></svg>