<svg fill="none" height="20" viewBox="0 0 21 20" width="21" xmlns="http://www.w3.org/2000/svg"><path clip-rule="evenodd" d="m7.00309 20h7.97961c3.314 0 6.0102-2.6962 6.0175-6.0029v-7.98693c0-3.31395-2.6962-6.01017-6.0102-6.01017h-7.98691c-3.31395 0-6.01017 2.69622-6.01017 6.01017v7.97963c0 3.314 2.69622 6.0102 6.01017 6.0102zm-4.1279-13.98983c0-2.2747 1.8532-4.1279 4.1279-4.1279h7.98691c2.2747 0 4.1279 1.8532 4.1279 4.1279v7.98693c0 2.2747-1.8532 4.1279-4.1279 4.1279h-7.98691c-2.2747 0-4.1279-1.8532-4.1279-4.1279zm13.41571-2.44184c-.6468 0-1.1701.52325-1.1701 1.17006 0 .6468.5233 1.17006 1.1701 1.17006s1.1701-.52326 1.1701-1.17006c0-.63954-.5233-1.17006-1.1701-1.17006zm-5.218 1.50436c-2.71803 0-4.92733 2.20931-4.92733 4.92731s2.2093 4.9273 4.92733 4.9273c2.718 0 4.9273-2.2093 4.9273-4.9273s-2.2093-4.92731-4.9273-4.92731zm0 8.08141c-1.73692 0-3.15408-1.4172-3.15408-3.1541s1.41716-3.15405 3.15408-3.15405c1.7369 0 3.1541 1.41715 3.1541 3.15405s-1.4099 3.1541-3.1541 3.1541z" fill="#c0933e" fill-rule="evenodd"/></svg>